<svg id="visual" viewBox="0 0 900 600" width="900" height="600" xmlns="http://www.w3.org/2000/svg" xmlns:xlink="http://www.w3.org/1999/xlink" version="1.1"><rect x="0" y="0" width="900" height="600" fill="#001829"></rect><g fill="none" stroke="#297EA6" stroke-width="4"><path d="M0 -111.4L25 -34.4L105.9 -34.4L40.5 13.1L65.5 90.1L0 42.5L-65.5 90.1L-40.5 13.1L-105.9 -34.4L-25 -34.4Z" transform="translate(656 181)"></path><path d="M0 -49.1L11 -15.2L46.7 -15.2L17.8 5.8L28.8 39.7L0 18.7L-28.8 39.7L-17.8 5.8L-46.7 -15.2L-11 -15.2Z" transform="translate(228 579)"></path><path d="M0 -64.2L14.4 -19.8L61 -19.8L23.3 7.6L37.7 51.9L0 24.5L-37.7 51.9L-23.3 7.6L-61 -19.8L-14.4 -19.8Z" transform="translate(527 416)"></path><path d="M0 -94.4L21.2 -29.2L89.8 -29.2L34.3 11.1L55.5 76.4L0 36.1L-55.5 76.4L-34.3 11.1L-89.8 -29.2L-21.2 -29.2Z" transform="translate(72 200)"></path><path d="M0 -63.2L14.2 -19.5L60.1 -19.5L23 7.5L37.2 51.2L0 24.2L-37.2 51.2L-23 7.5L-60.1 -19.5L-14.2 -19.5Z" transform="translate(333 260)"></path><path d="M0 -85.9L19.3 -26.5L81.7 -26.5L31.2 10.1L50.5 69.5L0 32.8L-50.5 69.5L-31.2 10.1L-81.7 -26.5L-19.3 -26.5Z" transform="translate(802 541)"></path><path d="M0 -98.2L22 -30.3L93.4 -30.3L35.7 11.6L57.7 79.4L0 37.5L-57.7 79.4L-35.7 11.6L-93.4 -30.3L-22 -30.3Z" transform="translate(246 32)"></path><path d="M0 -91.6L20.6 -28.3L87.1 -28.3L33.3 10.8L53.8 74.1L0 35L-53.8 74.1L-33.3 10.8L-87.1 -28.3L-20.6 -28.3Z" transform="translate(833 6)"></path><path d="M0 -54.7L12.3 -16.9L52.1 -16.9L19.9 6.5L32.2 44.3L0 20.9L-32.2 44.3L-19.9 6.5L-52.1 -16.9L-12.3 -16.9Z" transform="translate(889 237)"></path><path d="M0 -50L11.2 -15.5L47.6 -15.5L18.2 5.9L29.4 40.5L0 19.1L-29.4 40.5L-18.2 5.9L-47.6 -15.5L-11.2 -15.5Z" transform="translate(2 451)"></path></g></svg>